<svg xmlns="http://www.w3.org/2000/svg" xmlns:xlink="http://www.w3.org/1999/xlink" xmlns:inkscape="http://www.inkscape.org/namespaces/inkscape" version="1.1" width="2834.65" height="1133.86" viewBox="0 0 2834.65 1133.86">
<defs>
<clipPath id="clip_1">
<path transform="matrix(1,0,0,-1,0,1133.86)" d="M0 1133.858H2834.646V0H0Z"/>
</clipPath>
</defs>
<g clip-path="url(#clip_1)">
<path transform="matrix(1,0,0,-1,636.381,587.0284)" d="M0 0C-32.347-89.187-143.392-161.578-247.986-161.683-352.595-161.773-411.169-89.563-378.81-.373-346.464 88.797-235.436 161.175-130.808 161.283-26.221 161.396 32.354 89.178 0 0" fill="#00529c"/>
<path transform="matrix(1,0,0,-1,481.4454,438.2022)" d="M0 0-6.183-71.069 39.222 .026 13.018-73.705 73.44-10.08 28.977-81.482 100.271-29.68 40.634-93.843 117.96-57.383 47.158-109.975 125.23-91.342 48.117-128.755 121.645-129.254 43.452-148.933 107.394-168.493 33.481-169.117 83.481-206.405 18.875-187.919 51.551-240.407 .628-204.078 13.751-268.171-19.987-216.481-27.357-287.836-41.62-224.294-68.915-298.033-62.742-226.973-108.142-298.063-81.943-224.341-142.356-287.958-97.911-216.563-169.205-268.362-109.55-204.194-186.863-240.65-116.067-188.072-194.167-206.683-117.029-169.261-190.552-168.797-112.373-149.101-176.323-129.554-102.389-128.92-152.419-91.632-87.778-110.117-120.467-57.635-69.553-93.951-82.663-29.862-48.93-81.561-41.576-10.197-27.304-73.739Z" fill="#fbe115"/>
<path transform="matrix(1,0,0,-1,393.2652,587.2745)" d="M0 0C10.738 29.628 43.586 53.754 73.223 53.78 102.851 53.802 118.19 29.736 107.42 .108 96.66-29.527 63.833-53.646 34.213-53.672 4.621-53.697-10.748-29.628 0 0M-5.324-.009C-17.133-32.566-.273-59.034 32.284-59.008 64.842-58.961 100.943-32.454 112.762 .117 124.571 32.676 107.697 59.147 75.139 59.108 42.593 59.078 6.485 32.546-5.324-.009" fill="#ffffff"/>
<path transform="matrix(1,0,0,-1,286.0758,587.1553)" d="M0 0V0C31.677 87.326 127.393 158.674 214.976 161.049 216.411 161.075 217.845 161.109 219.28 161.109 231.493 161.127 243.074 160.182 254.007 158.37 258.173 157.654 262.252 156.827 266.402 155.851 272.674 154.316 278.727 152.504 284.51 150.401 251.883 168.696 192.288 172.395 147.678 163.563 50.806 144.393-33.049 73.44-62.348-.061Z" fill="#16a1dc"/>
<path transform="matrix(1,0,0,-1,607.8854,587.2989)" d="M0 0H-.014C-31.687-87.327-127.412-158.683-214.991-161.037-216.42-161.075-217.856-161.11-219.299-161.11-231.499-161.128-243.083-160.165-254.025-158.38-258.191-157.672-262.28-156.818-266.403-155.843-272.71-154.325-278.754-152.505-284.529-150.402-251.893-168.697-192.303-172.404-147.705-163.582-50.841-144.402 33.03-73.45 62.315 .064H62.334Z" fill="#94c944"/>
<path transform="matrix(1,0,0,-1,926.8658,650.3761)" d="M0 0C-8.671-1.396-17.272-2.09-25.792-2.09-33.669-2.098-39.578-.269-43.51 3.43-47.452 7.137-53.538 16.652-61.736 31.952-69.474 46.371-75.748 55.602-80.573 59.624-85.403 63.63-92.651 65.616-102.271 65.607L-114.267 14.012C-114.761 11.987-114.991 10.11-114.991 8.354-114.991 4.578-113.73 1.392-111.129-1.257L-156.45-1.3C-151.317 1.457-148.104 5.623-146.821 11.151L-120.18 126.432C-119.865 127.828-119.704 129.44-119.704 131.34-119.704 134.608-121.173 137.102-124.043 138.866L-70.051 138.922C-50.59 138.939-35.577 136.121-24.951 130.485-15.305 125.353-10.484 118.516-10.474 109.975-10.458 98.794-16.735 89.434-29.256 81.891-39.839 75.487-52.775 71.317-68.052 69.427-60.014 68.434-53.036 64.714-47.069 58.323-43.21 54.31-38.854 47.736-34.034 38.572-26.143 23.624-20.121 13.839-15.921 9.117-11.745 4.413-6.422 1.375 0 0M-44.941 108.041C-44.962 114.714-48.184 119.786-54.609 123.298-60.388 126.44-68.026 128.002-77.504 127.993-82.013 127.983-85.55 127.667-88.117 127.025L-99.874 77.291C-97.16 76.948-94.494 76.744-91.91 76.744-77.933 76.753-66.613 79.558-57.926 85.151-49.264 90.757-44.924 98.396-44.941 108.041" fill="#00529c"/>
<path transform="matrix(1,0,0,-1,2323.005,650.3761)" d="M0 0C-8.671-1.396-17.272-2.09-25.791-2.09-33.669-2.098-39.577-.269-43.51 3.43-47.451 7.137-53.537 16.652-61.735 31.952-69.474 46.371-75.748 55.602-80.572 59.624-85.403 63.63-92.65 65.616-102.271 65.607L-114.266 14.012C-114.761 11.987-114.991 10.11-114.991 8.354-114.991 4.578-113.729 1.392-111.128-1.257L-156.449-1.3C-151.316 1.457-148.104 5.623-146.82 11.151L-120.18 126.432C-119.864 127.828-119.703 129.44-119.703 131.34-119.703 134.608-121.173 137.102-124.043 138.866L-70.051 138.922C-50.59 138.939-35.576 136.121-24.95 130.485-15.304 125.353-10.483 118.516-10.474 109.975-10.457 98.794-16.734 89.434-29.255 81.891-39.838 75.487-52.774 71.317-68.052 69.427-60.014 68.434-53.035 64.714-47.068 58.323-43.21 54.31-38.854 47.736-34.033 38.572-26.143 23.624-20.121 13.839-15.92 9.117-11.744 4.413-6.421 1.375 0 0M-44.94 108.041C-44.962 114.714-48.184 119.786-54.608 123.298-60.387 126.44-68.025 128.002-77.503 127.993-82.013 127.983-85.55 127.667-88.116 127.025L-99.873 77.291C-97.159 76.948-94.493 76.744-91.909 76.744-77.933 76.753-66.612 79.558-57.926 85.151-49.263 90.757-44.924 98.396-44.94 108.041" fill="#00529c"/>
<path transform="matrix(1,0,0,-1,1104.1979,553.7677)" d="M0 0C-4.678-3.026-10.531-10.37-17.577-22.08L-62.598-97.624-79.212-97.633-90.86-32.862-132.502-97.698-148.633-97.729-157.167-20.893C-157.976-13.848-158.748-9.079-159.473-6.56-160.187-4.067-161.618-1.935-163.699-.178L-128.019-.14C-131.058-1.786-132.593-4.522-132.593-8.429-132.593-10.436-132.428-12.946-132.104-15.959L-126.74-65.486-84.623-.092-71.36-.074-59.486-65.039-31.086-17.555C-26.915-10.518-24.833-5.55-24.833-2.658-24.833-1.413-25.315-.543-26.281-.049Z" fill="#00529c"/>
<path transform="matrix(1,0,0,-1,1218.7155,553.6622)" d="M0 0-18.984-82.511C-19.766-86.018-20.185-88.523-20.185-90.041-20.185-93.804-16.961-96.314-10.539-97.559-18.074-98.703-25.063-99.267-31.496-99.279-36.958-99.279-40.657-99.036-42.578-98.533-46.436-97.663-48.37-95.646-48.37-92.512V-88.367C-58.419-96.665-70.164-100.831-83.582-100.836-95.699-100.866-105.124-97.285-111.833-90.123-117.922-83.478-120.965-74.62-120.965-63.582-120.986-48.4-114.657-33.959-101.972-20.237-87.513-4.683-69.678 3.143-48.474 3.16-38.675 3.16-30.4 .732-23.64-4.162L-13.994-.009ZM-31.587-16.228C-35.919-11.077-41.883-8.523-49.41-8.523-61.788-8.528-71.906-15.391-79.779-29.068-86.035-40.267-89.169-51.873-89.156-63.925-89.138-77.625-82.709-84.452-69.837-84.444-65.664-84.436-60.999-82.979-55.87-80.1-51.205-77.46-47.272-74.369-44.038-70.849Z" fill="#00529c"/>
<path transform="matrix(1,0,0,-1,1352.5187,571.23049)" d="M0 0C0-3.121-.789-8.159-2.389-15.073L-13.914-65.173C-14.554-67.931-14.888-70.332-14.888-72.34-14.888-76.098-11.588-78.608-4.99-79.844-12.703-80.988-21.391-81.557-31.02-81.573-38.901-81.582-42.851-79.263-42.851-74.624-42.851-73.366-42.217-69.902-40.917-64.254L-29.87-15.854C-28.76-10.687-28.192-6.94-28.215-4.543-28.215 1.479-32.165 4.5-40.025 4.487-48.725 4.47-58.592 .009-69.644-8.913L-81.909-63.539C-82.857-67.821-83.343-70.77-83.343-72.4-83.343-75.292-81.982-77.802-79.229-79.931L-119.721-79.974C-114.583-76.827-111.145-71.489-109.39-63.955L-94.259 2.739C-93.783 4.86-93.562 6.876-93.553 8.775-93.562 13.661-95.08 16.609-98.144 17.61L-63.426 17.649-65.825 7.47C-60.86 10.985-54.977 14.068-48.23 16.708-40.683 19.488-33.958 20.87-27.994 20.87-9.36 20.901-.017 13.951 0 0" fill="#00529c"/>
<path transform="matrix(1,0,0,-1,1501.1847,506.6593)" d="M0 0-29.06-127.347C-29.819-130.876-30.249-133.949-30.23-136.572-30.249-140.223-27.08-142.789-20.819-144.302-28.372-145.43-35.213-145.997-41.309-145.997-47.581-146.006-51.922-145.642-54.34-144.887-57.22-143.886-58.672-142.009-58.672-139.238-58.672-138.111-58.437-136.741-57.973-135.099-68.547-143.392-80.209-147.558-92.895-147.566-105.588-147.575-115.251-143.951-121.824-136.672-127.945-130.169-131.016-121.352-131.024-110.309-131.041-94.623-124.482-79.923-111.294-66.223-96.852-51.148-79.438-43.597-59.01-43.566-50.646-43.558-43.811-45.252-38.498-48.63L-30.604-15.481C-29.797-12.083-29.403-9.694-29.403-8.319-29.417-4.678-30.929-1.925-33.978-.048ZM-41.625-62.945C-45.51-57.804-51.392-55.25-59.235-55.25-71.465-55.268-81.492-61.874-89.352-75.054-95.934-86.23-99.224-98.101-99.207-110.646-99.185-124.342-92.755-131.17-79.901-131.17-71.066-131.153-62.542-126.813-54.366-118.151Z" fill="#00529c"/>
<path transform="matrix(1,0,0,-1,1664.7794,650.7677)" d="M0 0-40.735-.034C-37.852 1.105-36.399 2.983-36.399 5.61-36.417 6.997-36.732 9.018-37.379 11.636L-46.071 45.538C-54.772 46.28-65.451 46.64-78.166 46.631-92.794 46.613-105.011 46.237-114.786 45.469-116.565 43.072-124.668 32.013-139.108 12.282-142.481 7.639-144.162 4.509-144.162 2.874-144.162 1.734-143.187 .732-141.263-.147L-171.182-.178C-167.157 2.212-162.479 7.054-157.199 14.35L-72.699 130.056C-70.618 132.957-69.548 135.232-69.569 136.85-69.569 138.358-70.692 139.425-72.942 140.058L-39.431 140.088-7.743 12.23C-6.281 6.078-3.697 2.007 0 0M-48.517 59.082-63.045 116.331-104.938 58.844C-99.791 58.35-90.141 58.037-75.99 57.942-69.895 58.09-60.738 58.471-48.517 59.082" fill="#00529c"/>
<path transform="matrix(1,0,0,-1,2161.2237,650.7677)" d="M0 0-40.736-.034C-37.853 1.105-36.4 2.983-36.4 5.61-36.418 6.997-36.733 9.018-37.38 11.636L-46.072 45.538C-54.773 46.28-65.451 46.64-78.167 46.631-92.795 46.613-105.011 46.237-114.787 45.469-116.565 43.072-124.669 32.013-139.108 12.282-142.482 7.639-144.163 4.509-144.163 2.874-144.163 1.734-143.188 .732-141.264-.147L-171.182-.178C-167.158 2.212-162.48 7.054-157.2 14.35L-72.7 130.056C-70.619 132.957-69.549 135.232-69.569 136.85-69.569 138.358-70.693 139.425-72.943 140.058L-39.432 140.088-7.744 12.23C-6.282 6.078-3.698 2.007 0 0M-48.518 59.082-63.046 116.331-104.938 58.844C-99.792 58.35-90.142 58.037-75.991 57.942-69.896 58.09-60.739 58.471-48.518 59.082" fill="#00529c"/>
<path transform="matrix(1,0,0,-1,1739.672,553.13088)" d="M0 0-18.269-80.616C-19.374-85.523-19.942-88.667-19.934-90.05-19.942-93.565-16.795-96.063-10.53-97.567-15.983-98.712-24.191-99.279-35.121-99.284-43.622-99.297-47.888-96.861-47.888-91.953-47.906-90.709-47.415-87.93-46.475-83.668L-30.854-15.305C-30.222-12.517-29.896-10.184-29.905-8.316-29.905-4.162-31.436-1.413-34.487-.026ZM10.075 34.292C10.093 30.771 8.511 27.815 5.393 25.435 2.249 23.038-1.487 21.85-5.813 21.85-10.185 21.842-13.895 23.029-17.033 25.409-20.186 27.785-21.746 30.741-21.746 34.254-21.746 37.647-20.203 40.574-17.046 43.037-13.929 45.465-10.196 46.708-5.836 46.708-1.495 46.708 2.211 45.481 5.371 43.046 8.506 40.592 10.075 37.674 10.075 34.292" fill="#00529c"/>
<path transform="matrix(1,0,0,-1,1847.4083,552.44149)" d="M0 0-1.661-25.248C-6.959-19.738-13.475-16.985-21.187-16.994-30.361-17.008-39.097-21.208-47.451-29.623L-60.185-83.507C-60.99-86.889-61.371-89.155-61.371-90.292-61.362-93.803-59.998-96.443-57.267-98.191L-97.52-98.247C-92.222-95.477-88.784-90.504-87.18-83.351L-71.587-15.537C-70.952-12.759-70.637-10.326-70.637-8.176-70.637-4.552-72.066-2.037-74.967-.659L-41.226-.624-44.104-13.626C-33.977-2.805-23.56 2.606-12.759 2.61-8.129 2.61-3.859 1.739 0 0" fill="#00529c"/>
<path transform="matrix(1,0,0,-1,1978.4279,646.6788)" d="M0 0C-2.948-1.203-6.383-2.206-10.309-3.006-13.667-3.678-17.792-4.31-22.671-4.912-27.55-5.515-33.068-5.814-39.216-5.814-53.521-5.814-64.78-3.743-72.989 .401-81.21 4.543-87.263 9.956-91.161 16.644-95.057 23.324-97.087 30.878-97.247 39.3-97.406 47.72-96.501 56.272-94.528 64.964-88.917 89.689-78.304 108.336-62.685 120.902-47.073 133.465-27.764 139.748-4.774 139.748 1.773 139.748 7.281 139.415 11.736 138.746 16.199 138.076 19.824 137.41 22.615 136.741 25.904 135.939 28.499 135.003 30.395 133.935 30.05 132.998 29.712 131.795 29.378 130.326 28.97 129.124 28.548 127.551 28.109 125.614 27.669 123.675 27.145 121.369 26.537 118.697 25.992 116.29 25.5 114.118 25.06 112.181 24.618 110.242 24.297 108.538 24.1 107.067 23.734 105.464 23.466 103.991 23.297 102.657 21.854 105.73 20.347 108.502 18.771 110.977 17.193 113.449 15.288 115.521 13.062 117.194 10.838 118.864 8.146 120.131 5.006 121.002 1.862 121.871-2.05 122.306-6.727 122.306-12.744 122.306-18.676 121.202-24.521 118.997-30.372 116.791-35.787 113.385-40.775 108.772-45.77 104.16-50.202 98.313-54.083 91.228-57.966 84.143-61.011 75.721-63.226 65.965-65.045 57.944-65.944 50.593-65.926 43.91-65.908 37.226-64.728 31.51-62.396 26.767-60.063 22.021-56.49 18.347-51.669 15.739-46.847 13.134-40.491 11.83-32.604 11.83-27.927 11.83-23.745 12.296-20.054 13.233-16.371 14.167-12.991 15.506-9.918 17.243-6.856 18.979-3.938 21.085-1.168 23.56 1.596 26.03 4.396 28.806 7.232 31.88 6.797 30.542 6.382 29.004 5.989 27.268 5.52 25.795 5.039 23.96 4.538 21.755 4.036 19.55 3.48 17.109 2.876 14.438 2.298 11.896 1.812 9.757 1.421 8.021 1.026 6.281 .757 4.812 .618 3.609 .283 2.137 .077 .934 0 0" fill="#00529c"/>
<path transform="matrix(1,0,0,-1,2453.5089,588.1319)" d="M0 0C-1.331-1.738-2.489-3.479-3.488-5.213-4.484-6.952-5.613-9.724-6.88-13.535-8.145-17.343-9.646-22.626-11.376-29.373-13.108-36.125-15.31-45.383-17.981-57.144L-18.253-58.346C-21.602-59.549-25.367-60.552-29.562-61.354-33.222-62.155-37.559-62.857-42.57-63.459-47.588-64.061-53.304-64.361-59.719-64.361-72.821-64.361-83.704-62.556-92.377-58.948-101.046-55.339-107.745-50.395-112.468-44.109-117.188-37.829-120.05-30.41-121.048-21.854-122.048-13.303-121.426-4.08-119.182 5.814-113.445 31.077-102.446 49.955-86.173 62.455-69.902 74.953-49.607 81.201-25.276 81.201-18.461 81.201-12.655 80.867-7.864 80.199-3.068 79.529 .79 78.862 3.715 78.194 7.139 77.394 10.003 76.456 12.303 75.389 11.951 74.451 11.542 73.249 11.08 71.779 10.674 70.576 10.248 69.003 9.81 67.067 9.368 65.127 8.844 62.822 8.238 60.149 7.691 57.744 7.199 55.57 6.76 53.634 6.318 51.695 5.998 49.992 5.803 48.521 5.567 46.917 5.368 45.444 5.202 44.11 3.653 47.318 1.985 50.124 .193 52.531-1.599 54.938-3.717 56.941-6.158 58.546-8.604 60.149-11.506 61.353-14.864 62.155-18.223 62.958-22.308 63.357-27.12 63.357-33.135 63.357-39.208 62.521-45.334 60.852-51.463 59.18-57.277 56.239-62.775 52.03-68.276 47.819-73.225 42.07-77.615 34.787-82.009 27.501-85.481 18.247-88.028 7.017-89.878-1.138-90.856-8.521-90.955-15.139-91.049-21.755-89.905-27.437-87.5-32.181-85.104-36.927-81.321-40.57-76.146-43.107-70.978-45.648-64.049-46.918-55.358-46.918-53.488-46.918-51.81-46.886-50.323-46.817-48.838-46.751-47.55-46.65-46.444-46.518-45.214-46.385-44.182-46.25-43.346-46.115-41.526-38.096-40.102-31.515-39.064-26.365-38.032-21.222-37.336-16.978-36.976-13.635-36.619-10.294-36.548-7.62-36.761-5.614-36.976-3.609-37.355-1.738-37.894 0L-39.121 3.408C-37.82 3.273-36.164 3.208-34.158 3.208-32.452 3.073-30.295 3.008-27.688 3.008H-18.364-8.841C-6.234 3.008-4.047 3.073-2.277 3.208-.274 3.208 1.346 3.273 2.579 3.408Z" fill="#00529c"/>
<path transform="matrix(1,0,0,-1,2576.169,579.50979)" d="M0 0C2.274 10.023 3.406 18.545 3.395 25.562 3.382 32.581 2.396 38.26 .444 42.606-1.513 46.948-4.399 50.125-8.22 52.13-12.046 54.134-16.561 55.137-21.771 55.137-26.986 55.137-31.934 54.101-36.613 52.029-41.294 49.956-45.646 46.682-49.671 42.204-53.695 37.725-57.32 31.909-60.549 24.761-63.774 17.608-66.526 9.022-68.801-1.003-71.076-11.027-72.208-19.55-72.199-26.567-72.184-33.584-71.21-39.3-69.27-43.709-67.332-48.121-64.45-51.329-60.627-53.334-56.807-55.339-52.287-56.341-47.073-56.341-41.861-56.341-36.913-55.309-32.232-53.234-27.555-51.164-23.201-47.889-19.177-43.409-15.153-38.933-11.527-33.118-8.299-25.966-5.075-18.816-2.308-10.161 0 0M31.886 1.803C30.731-3.278 29.146-8.657 27.12-14.336 25.097-20.02 22.474-25.665 19.267-31.279 16.053-36.893 12.284-42.306 7.963-47.519 3.632-52.731-1.415-57.312-7.186-61.254-12.963-65.198-19.491-68.34-26.769-70.678-34.049-73.014-42.169-74.188-51.123-74.188-61.951-74.188-71.07-72.547-78.48-69.273-85.893-66.001-91.674-61.287-95.825-55.14-99.976-48.992-102.461-41.538-103.282-32.783-104.103-24.029-103.251-14.104-100.734-3.008-99.583 2.07-97.995 7.448-95.971 13.132-93.945 18.812-91.323 24.461-88.113 30.075-84.903 35.688-81.135 41.103-76.81 46.315-72.486 51.528-67.434 56.105-61.663 60.049-55.887 63.989-49.36 67.133-42.079 69.473-34.8 71.81-26.681 72.982-17.722 72.982-6.896 72.982 2.222 71.342 9.632 68.068 17.039 64.792 22.829 60.115 27 54.034 31.16 47.95 33.65 40.5 34.456 31.679 35.261 22.857 34.405 12.896 31.886 1.803" fill="#00529c"/>
</g>
</svg>
